<svg width="500" height="700" xmlns="http://www.w3.org/2000/svg">
 <style type="text/css">.st0{fill:#EFA631;}
	.st1{fill:#656665;}
	.st2{fill:#F0A52F;}
	.st3{fill:#636664;}
	.st4{fill:#FFFFFF;}</style>

 <g>
  <title>background</title>
  <rect x="-1" y="-1" width="502" height="702" id="canvas_background" fill="none"/>
 </g>
 <g>
  <title>Layer 1</title>
  <g id="svg_21" stroke="null">
   <path class="st2" d="m416.6,365.5l56.5,-14l-54.5,-20.4l24,-20.6l-28.7,-13.5l28.8,-28.1l-40.1,-4.4l12.7,-29.2l-30.1,-0.5l30.1,-49.8l-53,24.1l2.4,-32.8l-29.9,12l0.7,-40.8l-31.7,25.8l-9.6,-28.5l-23.8,19.8l-14,-56.5l-20.4,54.4l-19.4,-22.3l-14.7,27.1l-27.2,-30.1l-5.3,41.4l-26.8,-13.3l-2.9,30.7l-49.8,-30.1l24.1,53l-30.6,0.2l9.9,27.3l-42.7,-0.6l27.7,31.6l-30,10.6l21.4,22.7l-56.5,14l54.5,20.4l-22,21l26.8,13.1l-30.7,28.3l42,4.2l-13.8,26.4l31,3.3l-30.1,49.8l53,-24.1l-2.1,33l29.6,-12.2l-3.4,41.4l34.4,-26.4l8.1,30.4l25.2,-21.8l14,56.5l20.4,-54.5l19.7,26.4l14.4,-31.1l27.7,31.6l4.8,-42.9l28.4,17.6l1.3,-35.1l49.8,30.1l-24.1,-53l30.2,4.3l-9.4,-31.8l40.4,0.4l-25.3,-31.2l29.8,-10.3l-21.2,-23zm-175.1,130.2c-87.9,0 -159.2,-71.3 -159.2,-159.2s71.3,-159.2 159.2,-159.2s159.2,71.3 159.2,159.2s-71.3,159.2 -159.2,159.2z" id="svg_22" stroke="null"/>
   <circle class="st3" cx="243.1" cy="338.1" r="142.4" id="svg_23" stroke="null"/>
   <circle class="st4" cx="217.8" cy="298.3" r="8.2" id="svg_24" stroke="null"/>
   <circle class="st4" cx="300.4" cy="301.2" r="8.2" id="svg_25" stroke="null"/>
   <circle class="st4" cx="232.4" cy="336" r="14" id="svg_26" stroke="null"/>
   <circle class="st4" cx="335.4" cy="331.1" r="12.2" id="svg_27" stroke="null"/>
   <circle class="st4" cx="271.1" cy="379.5" r="6.8" id="svg_28" stroke="null"/>
   <circle class="st4" cx="201.6" cy="386.3" r="10.4" id="svg_29" stroke="null"/>
   <circle class="st4" cx="162.3" cy="336" r="7" id="svg_30" stroke="null"/>
   <rect x="166.9" y="334.9" class="st4" width="56.6" height="4.3" id="svg_31" stroke="null"/>
   <rect x="223.5" y="298" transform="matrix(0.49804922842383387,0.02617338,-0.013039543577316999,0.9997,10.577631470104205,-6.698700000000002) " class="st4" width="72.7" height="3.6" id="svg_32" stroke="null"/>
   <polygon class="st4" points="114.43397027127088,299.1000061035156 86.93340421238321,249.1999969482422 88.97602187407068,247.6999969482422 115.72928990091299,296.20001220703125 " id="svg_33" stroke="null"/>
   <polygon class="st4" points="123.00299378691801,230.89999389648438 88.37818496881613,251.1999969482422 87.68070224442857,247.60000610351562 122.45497218932127,227.1999969482422 " id="svg_34" stroke="null"/>
   <rect x="224.2" y="229.8" transform="matrix(0.48848381361365323,0.1964,-0.0978462223291397,0.9805,34.39750714220618,-39.29089999999999) " class="st4" width="3.5" height="63.2" id="svg_35" stroke="null"/>
   <rect x="263.3" y="215.5" transform="matrix(0.36313702370524403,-0.6847,0.34111664169430733,0.7289,-47.33686997629786,252.8553) " class="st4" width="3.5" height="95.4" id="svg_36" stroke="null"/>
   <rect x="261.8" y="212.7" transform="matrix(0.2865140654861927,-0.8181,0.4075763466775418,0.5751,-39.464135028568755,321.87) " class="st4" width="3.5" height="74.6" id="svg_37" stroke="null"/>
   <rect x="295.4" y="268.1" transform="matrix(0.4856440810918808,-0.2232,0.11119794716835023,0.9748,-21.524249371943725,73.5355) " class="st4" width="3.5" height="37.3" id="svg_38" stroke="null"/>
   <rect x="311.7" y="244.3" transform="matrix(0.09052270161509514,0.9834,-0.48992858980894094,0.1817,264.57033281892757,-90.7986) " class="st4" width="3.5" height="42.7" id="svg_39" stroke="null"/>
   <rect x="316.7" y="258.6" transform="matrix(0.37489451274275776,0.6585,-0.32806383606791495,0.7525,137.73054108222937,-140.4549) " class="st4" width="3.5" height="42.7" id="svg_40" stroke="null"/>
   <rect x="332.7" y="263.6" transform="matrix(0.4981488681614399,-0.01621576,0.008078670357413291,0.9999,4.278805817600238,5.461500000000001) " class="st4" width="3.5" height="58.7" id="svg_41" stroke="null"/>
   <polygon class="st4" points="188.26702191887983,325.70001220703125 189.71179507340406,324.29998779296875 173.22141545883954,261 171.6271887794332,262.70001220703125 " id="svg_42" stroke="null"/>
   <rect x="315.9" y="298.6" transform="matrix(0.32806383606791495,-0.7525,0.37489451274275776,0.6585,-57.624473604647164,346.786) " class="st4" width="3.5" height="33.8" id="svg_43" stroke="null"/>
   <polygon class="st4" points="189.26341929494032,327.3999938964844 189.51251863895544,323.79998779296875 172.8726854995088,329.20001220703125 173.17159254927304,332.70001220703125 " id="svg_44" stroke="null"/>
   <rect x="307.7" y="323.5" transform="matrix(-0.18473207352161408,-0.9287,0.46267712157368657,-0.3708,60.08567771429037,755.1456) " class="st4" width="3.5" height="35.5" id="svg_45" stroke="null"/>
   <rect x="294.2" y="308.5" transform="matrix(-0.4935654402315617,-0.1359,0.06770520170331001,-0.9907,277.9291818993769,695.0349) " class="st4" width="3.5" height="40.9" id="svg_46" stroke="null"/>
   <rect x="266.9" y="288.2" transform="matrix(-0.23290788665413859,-0.884,0.44040764021873474,-0.4675,62.793985422160375,704.9677) " class="st4" width="3.5" height="60.6" id="svg_47" stroke="null"/>
   <rect x="264" y="312.3" transform="matrix(0.07971179008483886,-0.9871,0.4917719249546528,0.16,-50.60933787849332,550.1416) " class="st4" width="3.5" height="60.6" id="svg_48" stroke="null"/>
   <rect x="222.8" y="293.4" transform="matrix(-0.45400846440196035,0.4117,-0.205108399862051,-0.9113,284.64295723914125,505.723) " class="st4" width="3.5" height="39.2" id="svg_49" stroke="null"/>
   <rect x="189.6" y="286.9" transform="matrix(-0.27884180569052697,-0.8287,0.4128572527706623,-0.5597,24.32462714839791,653.4) " class="st4" width="3.5" height="60.8" id="svg_50" stroke="null"/>
   <polygon class="st4" points="111.44477814308942,299.20001220703125 111.69387748710454,295.70001220703125 74.37879879440283,285.70001220703125 75.32537326089681,289.6000061035156 " id="svg_51" stroke="null"/>
   <polygon class="st4" points="85.63809218464979,333.1000061035156 87.23232646596483,331.5 76.17231711207518,287 74.22933766761201,287.20001220703125 " id="svg_52" stroke="null"/>
   <rect x="179.3" y="335.7" transform="matrix(0.391633988660574,-0.6181,0.3079366090714931,0.7861,-85.09923449187662,189.0532) " class="st4" width="3.5" height="49.7" id="svg_53" stroke="null"/>
   <polygon class="st4" points="104.61945763745683,387.29998779296875 104.71909585468114,383.70001220703125 75.02645860922388,380.70001220703125 74.52825992119364,384.20001220703125 " id="svg_54" stroke="null"/>
   <rect x="235.5" y="352.7" transform="matrix(-0.03763521424641967,-0.9971,0.4967539118349552,-0.07554258,-56.24092602811838,647.979) " class="st4" width="3.5" height="59.7" id="svg_55" stroke="null"/>
   <rect x="252.1" y="329.6" transform="matrix(0.37703676710128786,-0.6536,0.32562266249656674,0.7568,-79.65277697472358,253.3432) " class="st4" width="3.5" height="59.7" id="svg_56" stroke="null"/>
   <rect x="280" y="342.9" transform="matrix(0.4051849929749966,0.5819,-0.28990181656479835,0.8133,138.32529067599984,-96.012) " class="st4" width="3.5" height="41.9" id="svg_57" stroke="null"/>
   <polygon class="st4" points="164.30366198386167,392.5 166.24663382641614,392.1000061035156 153.1938373223142,346.70001220703125 151.64941834865698,348.5 " id="svg_58" stroke="null"/>
   <polygon class="st4" points="166.09718030153402,393.70001220703125 165.15060583504004,389.5 140.4399478679765,376.1000061035156 139.99157208951277,379.5 " id="svg_59" stroke="null"/>
   <rect x="284.1" y="377.9" transform="matrix(0.3664749549150467,-0.6775,0.33752961114048957,0.7356,-89.1166588922837,298.1658) " class="st4" width="3.5" height="34.6" id="svg_60" stroke="null"/>
   <rect x="254.9" y="380.5" transform="matrix(0.4583427929878235,0.3919,-0.1952440658390522,0.92,97.58105755295371,-67.49459999999999) " class="st4" width="3.5" height="66" id="svg_61" stroke="null"/>
   <rect x="221.1" y="383.5" transform="matrix(0.4110637374937534,-0.565,0.2814822587370872,0.8251,-91.18567804367329,198.7841) " class="st4" width="3.5" height="66" id="svg_62" stroke="null"/>
   <rect x="210.3" y="402.7" transform="matrix(0.1396450922548771,-0.9599,0.47822092064023014,0.2803,-125.69336035021925,517.0914) " class="st4" width="3.5" height="66" id="svg_63" stroke="null"/>
   <rect x="188.3" y="389.5" transform="matrix(-0.4477311609327793,-0.4385,0.21846012470126153,-0.8987,96.86529549786066,861.3695) " class="st4" width="3.5" height="40.6" id="svg_64" stroke="null"/>
   <polygon class="st4" points="126.88893747202695,443.29998779296875 127.88533484808744,446.20001220703125 155.93393010648055,407.6000061035156 154.73824109215406,405 " id="svg_65" stroke="null"/>
   <polygon class="st4" points="181.8900695898023,389 182.13916893381742,385.1000061035156 153.1440144127477,346.5 152.19743994625372,349.3999938964844 " id="svg_66" stroke="null"/>
   <polygon class="st4" points="180.9933180328748,387 182.43809118739904,384.29998779296875 174.51673508848165,331.79998779296875 172.8228625899423,332.8999938964844 " id="svg_67" stroke="null"/>
   <polygon class="st4" points="180.7940415984262,384.29998779296875 182.33846057208342,386.70001220703125 189.71179507340406,324.29998779296875 187.8684538461652,324.70001220703125 " id="svg_68" stroke="null"/>
   <polygon class="st4" points="72.8343798207456,384.29998779296875 74.87699748243307,384.20001220703125 87.28214177362264,341.20001220703125 85.7377304018741,339.3999938964844 " id="svg_69" stroke="null"/>
   <rect x="213.8" y="340.5" transform="matrix(0.41395328988432883,0.5563,-0.27714793015122413,0.8309,126.061482311841,-58.18129999999999) " class="st4" width="3.5" height="49.7" id="svg_70" stroke="null"/>
   <path class="st4" d="m122.604432,229.6l0,0c-0.249099,-0.1 -0.448379,-0.6 -0.398559,-1.1l1.793515,-22.4c0.04982,-0.5 0.298919,-0.9 0.548019,-0.8l0,0c0.249099,0.1 0.448379,0.6 0.398559,1.1l-1.793515,22.4c-0.04982,0.5 -0.298919,0.9 -0.548019,0.8z" id="svg_71" stroke="null"/>
   <path class="st4" d="m152.446533,270.2l0,0c-0.249099,0 -0.498199,-0.4 -0.548019,-0.9l-0.896758,-22.6c0,-0.5 0.199279,-1 0.448379,-1.1l0,0c0.249099,0 0.498199,0.4 0.548019,0.9l0.896758,22.6c0.04982,0.5 -0.14946,1 -0.448379,1.1z" id="svg_72" stroke="null"/>
   <path class="st4" d="m170.431506,267.7l4.981987,-19.9c0.09964,-0.5 0.398559,-0.7 0.647658,-0.4l0,0c0.249099,0.2 0.348739,0.8 0.199279,1.3l-4.832527,19.4" id="svg_73" stroke="null"/>
   <path class="st4" d="m183.534131,396.5l0,0c-0.249099,0.2 -0.548019,-0.1 -0.647658,-0.6l-3.73649,-21.4c-0.09964,-0.5 0.04982,-1.1 0.298919,-1.3l0,0c0.249099,-0.2 0.548019,0.1 0.647658,0.6l3.73649,21.4c0.09964,0.5 0,1.1 -0.298919,1.3z" id="svg_74" stroke="null"/>
   <path class="st4" d="m164.004743,389.1l8.867937,10.3c0.249099,0.3 0.298919,0.9 0.199279,1.4l0,0c-0.14946,0.5 -0.448379,0.6 -0.697478,0.4l-8.967576,-10.4" id="svg_75" stroke="null"/>
   <path class="st4" d="m153.84149,406.6l6.675862,1.9c0.249099,0.1 0.448379,0.6 0.398559,1.1l0,0c-0.04982,0.5 -0.298919,0.9 -0.548019,0.8l-6.675862,-1.9" id="svg_76" stroke="null"/>
   <path class="st4" d="m127.935158,441.7l0.647658,21.5c0,0.5 -0.199279,1 -0.448379,1.1l0,0c-0.249099,0 -0.498199,-0.4 -0.548019,-0.9l-0.597838,-20.9" id="svg_77" stroke="null"/>
   <path class="st4" d="m87.282145,439.9l0,0c-0.14946,-0.5 -0.09964,-1.1 0.14946,-1.4l9.316315,-12.8c0.249099,-0.3 0.548019,-0.2 0.697478,0.3l0,0c0.14946,0.5 0.09964,1.1 -0.14946,1.4l-9.316315,12.8c-0.249099,0.3 -0.548019,0.2 -0.697478,-0.3z" id="svg_78" stroke="null"/>
   <path class="st4" d="m76.022854,290.4l-5.828925,-8.5c-0.199279,-0.3 -0.249099,-0.9 -0.09964,-1.4l0,0c0.14946,-0.4 0.448379,-0.5 0.697478,-0.2l5.978384,8.7" id="svg_79" stroke="null"/>
   <path class="st4" d="m89.623679,249.9l-8.618837,-1.6c-0.249099,-0.1 -0.448379,-0.5 -0.448379,-1.1l0,0c0.04982,-0.5 0.249099,-0.9 0.548019,-0.9l8.718477,1.7" id="svg_80" stroke="null"/>
  </g>
 </g>
</svg>