<?xml version="1.0" encoding="utf-8"?>
<!-- Generator: Adobe Illustrator 21.0.0, SVG Export Plug-In . SVG Version: 6.00 Build 0)  -->
<svg version="1.1" id="Layer_1" xmlns="http://www.w3.org/2000/svg" xmlns:xlink="http://www.w3.org/1999/xlink" x="0px" y="0px"
	 viewBox="0 0 1200 700" style="enable-background:new 0 0 1200 700;" xml:space="preserve">
<style type="text/css">
	.st0{fill:#EFA631;}
	.st1{fill:#656665;}
	.st2{fill:#F0A52F;}
	.st3{fill:#636664;}
	.st4{fill:#FFFFFF;}
</style>
<g>
	<path class="st0" d="M518.9,353.2c0.5-1.8,1-3.5,1.5-5.3c3.9-14.8,7.8-29.5,11.6-44.3c0.5-2,1.2-2.9,3.4-2.7c2.4,0.2,4.8,0.2,7.2,0
		c1.9-0.1,2.7,0.5,3.2,2.5c4.1,15.9,8.2,31.7,12.4,47.5c0.2,0.9,0.5,1.7,1,3.4c1.2-4.7,2.2-8.6,3.1-12.5c3.1-12.7,6.1-25.4,9.1-38.1
		c0.5-2.2,1.4-2.8,3.6-2.8c4.9,0.2,9.8,0.1,14.9,0.1c-2.3,8-4.4,15.6-6.6,23.3c-4.6,16-9.2,32-13.6,48.1c-0.7,2.4-1.6,3.2-4.1,3
		c-3.7-0.2-7.4-0.2-11.1,0c-2.2,0.1-2.9-0.8-3.4-2.7c-3.8-15.2-7.7-30.4-11.6-45.5c-0.1-0.6-0.4-1.1-0.8-2.4c-2,8-3.9,15.2-5.7,22.5
		c-2.2,8.6-4.4,17.2-6.5,25.8c-0.4,1.8-1.2,2.4-3,2.4c-4.1-0.1-8.2-0.1-12.3,0c-1.5,0-2.3-0.3-2.8-1.9
		c-6.6-23.4-13.3-46.8-20.1-70.2c-0.5-1.7-0.3-2.3,1.6-2.3c4.4,0.1,8.8,0.1,13.2,0c1.9-0.1,2.5,0.7,2.9,2.4
		c3.7,15.5,7.5,31,11.3,46.5c0.3,1.1,0.6,2.2,0.9,3.3C518.5,353.2,518.7,353.2,518.9,353.2z"/>
	<path class="st0" d="M495.1,233.6c0-11.4,0.1-22.8-0.1-34.1c0-2.4,0.5-3.3,3.1-3.2c15.6,0.1,31.1,0.1,46.7,0c2.2,0,3.1,0.5,2.9,2.8
		c-0.2,2.6-0.2,5.2,0,7.8c0.2,2.4-0.5,3.2-3.1,3.2c-10.3-0.2-20.6,0-30.8-0.1c-2.3,0-3.2,0.5-3,2.9c0.2,3.6,0.2,7.2,0,10.8
		c-0.1,2,0.5,2.5,2.5,2.5c10.2-0.1,20.4,0,30.5-0.1c2.6,0,3.3,0.8,3.1,3.2c-0.2,2.6-0.2,5.2,0,7.8c0.2,2.4-0.8,2.8-2.9,2.8
		c-10.1-0.1-20.2,0-30.2-0.1c-2.3,0-3.1,0.6-3,3c0.2,4,0.2,8,0,12c-0.1,2.1,0.7,2.5,2.6,2.5c10.5-0.1,21,0,31.4-0.1
		c2.5,0,3.1,0.8,2.9,3.1c-0.2,2.8-0.1,5.6,0,8.4c0.1,1.6-0.4,2.3-2.2,2.3c-16.1-0.1-32.1-0.1-48.2,0c-2.3,0-2.3-1.2-2.3-2.8
		C495.1,256.6,495.1,245.1,495.1,233.6z"/>
	<path class="st1" d="M704.5,337c16.3,6.4,15.6,25.3,7.3,32.9c-4,3.6-8.7,5.3-13.9,5.4c-11.2,0.2-22.4,0-33.5,0.1
		c-1.7,0-2.2-0.4-2.2-2.2c0-23.4,0-46.7,0-70.1c0-1.7,0.6-2.2,2.3-2.2c10.9,0.1,21.8-0.1,32.6,0.1c13,0.3,21,10.2,18.8,22.6
		C714.7,329.4,712,332.7,704.5,337z M684.6,367.1C684.6,367,684.6,367,684.6,367.1c3.8-0.1,7.6,0.1,11.4-0.1
		c6.2-0.3,10.4-3.9,11.6-9.4c1.8-8.4-3.2-15.4-11.8-15.9c-7.5-0.4-15-0.1-22.4-0.2c-1.7,0-2,0.7-2,2.2c0.1,7.1,0.1,14.2,0,21.2
		c0,2,0.8,2.3,2.5,2.2C677.4,367,681,367.1,684.6,367.1z M684.3,309.3C684.3,309.3,684.3,309.3,684.3,309.3c-3.6,0-7.2,0-10.8,0
		c-1.2,0-2.1,0-2.1,1.7c0.1,6.9,0,13.8,0,20.6c0,1.1,0.2,1.7,1.5,1.7c7.6-0.1,15.2,0.2,22.7-0.3c7.2-0.5,11.1-5.4,10.8-12.5
		c-0.3-6.6-4.9-11-12-11.2C691,309.2,687.7,309.3,684.3,309.3z"/>
	<path class="st0" d="M495.1,442.8c0-11.4,0.1-22.7,0-34.1c0-2.2,0.4-3.1,2.9-3.1c15.6,0.1,31.1,0.1,46.7,0c2.4,0,3.1,0.7,3,3
		c-0.2,2.6-0.2,5.2,0,7.8c0.2,2.4-0.8,2.8-2.9,2.8c-10.3-0.1-20.6,0-30.8-0.1c-2.5,0-3.3,0.6-3.1,3.1c0.2,3.5,0.2,7,0,10.5
		c-0.1,2.1,0.6,2.7,2.7,2.7c10.1-0.1,20.2,0,30.2-0.1c2.4,0,3.4,0.5,3.2,3.1c-0.2,2.6-0.2,5.2,0,7.8c0.2,2.5-0.8,2.9-3,2.9
		c-10.1-0.1-20.2,0-30.2-0.1c-2.2,0-2.9,0.5-2.9,2.8c0.1,8.6,0,17.2,0.1,25.7c0,2.2-0.8,2.7-2.8,2.6c-3.3-0.1-6.6-0.2-9.9,0
		c-2.5,0.2-3.2-0.6-3.2-3.1C495.2,465.6,495.1,454.2,495.1,442.8z"/>
	<path class="st1" d="M1169.6,463.1c0-1.4,0-2.5,0-3.6c0-16.9,0.1-33.7-0.1-50.6c0-2.5,0.4-3.5,3.2-3.4c6.2,0.2,6.2,0.1,6.2,6.3
		c0,21.7-0.1,43.3,0.1,65c0,2.7-0.8,3.1-3.3,3.3c-4.1,0.3-6.6-1.1-9-4.5c-12.6-17.9-25.5-35.5-38.3-53.2c-0.3-0.5-0.7-0.9-1.1-1.4
		c-1,0.6-0.5,1.5-0.5,2.2c0,18-0.1,35.9,0,53.9c0,2.4-0.7,3-3,3c-6.4-0.1-6.4,0-6.4-6.4c0-21.7,0-43.3-0.1-65c0-2.4,0.6-3,3.1-3.3
		c4.8-0.5,7.7,1.3,10.5,5.3c11.9,16.8,24.1,33.3,36.2,49.9C1167.7,461.4,1168.1,462.4,1169.6,463.1z"/>
	<path class="st1" d="M570.7,211.1c0,1.8,0,2.9,0,3.9c0,17.6-0.1,35.1,0.1,52.7c0,2.5-0.7,3.1-3.2,3.1c-6.2-0.1-6.2,0-6.2-6.3
		c0-21.8,0-43.5,0-65.3c0-2.2,0.5-2.9,2.9-3.1c5-0.5,7.8,1.4,10.7,5.4c12,17,24.4,33.8,36.7,50.6c0.5,0.6,0.9,1.2,1.8,2.4
		c0.1-1.7,0.2-2.7,0.2-3.7c0-17.1,0.1-34.1,0-51.2c0-2.6,0.5-3.7,3.4-3.5c6,0.2,6,0.1,6,5.9c0,21.9,0,43.7,0.1,65.6
		c0,2.5-0.7,2.9-3.1,3.2c-4.4,0.5-6.9-1.3-9.5-4.9c-12.2-17.3-24.7-34.3-37.1-51.5C572.6,213.6,571.9,212.7,570.7,211.1z"/>
	<path class="st1" d="M775.6,464c0-18.9,0.1-36.9-0.1-54.8c0-3.2,0.9-3.8,3.8-3.7c5.5,0.2,5.5,0.1,5.5,5.5c0,22,0,43.9,0.1,65.9
		c0,2.5-0.6,3-3.1,3.2c-4.3,0.3-6.8-1.2-9.3-4.7c-12.4-17.5-25.1-34.8-37.6-52.2c-0.6-0.8-0.9-1.8-1.9-2.2c-0.8,0.8-0.4,1.7-0.4,2.5
		c0,17.8-0.1,35.5,0,53.3c0,2.7-0.7,3.3-3.3,3.2c-6-0.2-6-0.1-6-5.9c0-21.9,0-43.7,0-65.6c0-2.2,0.5-2.9,2.9-3.1
		c5-0.5,7.9,1.4,10.7,5.4c11.9,16.9,24.2,33.5,36.4,50.2C773.8,461.8,774.4,462.5,775.6,464z"/>
	<path class="st1" d="M821.6,232.5c5.9,0,11.8,0,17.7,0c1.2,0,2.5-0.3,2.4,1.7c-0.5,13.1-4,24.8-15.5,32.4
		c-18,12.1-51.1,5.8-57-24.8c-3.8-19.7,5.5-37.2,22.7-44c14.9-5.8,30.9-2.4,41.6,8.8c1.6,1.7,2.1,2.7-0.4,4.1
		c-4.6,2.6-4.4,2.7-8.4-0.6c-8.3-6.8-17.7-8.5-27.8-5c-10.3,3.6-16.4,11.3-18.2,21.9c-2.3,13.1,1,24.6,12.5,32.3
		c16,10.8,35.9,2.7,39.9-16c0.4-2,0.1-2.6-2-2.6c-8.5,0.1-17,0-25.4,0.1c-2.1,0-2.7-0.6-2.7-2.7c0.1-5.6,0-5.6,5.7-5.6
		C811.7,232.5,816.6,232.5,821.6,232.5z"/>
	<path class="st1" d="M802.2,442.9c0-11.5,0-23,0-34.4c0-2.1,0.3-3,2.7-3c8.9,0.2,17.8-0.3,26.6,0.3c21,1.6,35.1,17.5,34.3,38.2
		c-0.8,21-15.6,35.5-36.8,35.9c-8.1,0.2-16.2,0-24.3,0.1c-2.2,0-2.6-0.7-2.6-2.7C802.2,465.9,802.2,454.4,802.2,442.9z M811.6,442.6
		c0,8.9,0,17.8,0,26.6c0,1.3-0.2,2.6,1.9,2.5c5.5-0.1,11,0.1,16.5-0.2c9.3-0.6,16.9-4.4,21.9-12.5c3.8-6.2,4.9-13,4.1-20.1
		c-1.4-14.3-11.1-23.8-25.4-24.8c-5.4-0.4-10.8,0-16.1-0.2c-2.2-0.1-2.9,0.4-2.9,2.7C811.6,425.2,811.6,433.9,811.6,442.6z"/>
	<path class="st1" d="M1103,442.3c-0.2,18.7-10,32.7-25.5,37.4c-24.4,7.4-47.3-8.9-48.3-34.3c-0.5-13.3,3.1-25.1,13.9-33.4
		c11.7-9,24.9-10.1,38.2-4.5c13.2,5.5,19.6,16.4,21.3,30.3C1103,439.5,1103,441.3,1103,442.3z M1093.3,442.8
		c0.1-2.5-0.1-5.1-0.7-7.6c-2.3-10.5-7.9-18.4-18.6-21.4c-10.5-2.9-20.2-1-27.6,7.4c-7.1,7.9-8.5,17.6-7.1,27.8
		c1.9,13.9,12.1,23.4,25.3,24c13.9,0.6,24.7-7.8,27.8-21.7C1093,448.5,1093.4,445.7,1093.3,442.8z"/>
	<path class="st1" d="M630.8,442.7c0.1,18-9.7,32.2-25.3,37c-24.4,7.4-47.3-8.7-48.4-34.2c-0.3-5.7,0.3-11.4,2.2-16.8
		c5.4-15.9,20.1-25.6,36.9-24.3c18,1.4,30.9,12.8,34,30C630.6,437.1,630.8,439.9,630.8,442.7z M621.2,442.8c0.1-2.6-0.2-5.2-0.8-7.7
		c-0.4-1.9-1-3.9-1.7-5.7c-4.1-10.5-13.3-16.7-24.6-16.8c-11.3-0.1-20.6,6-24.9,16.4c-2.7,6.5-3.3,13.4-2,20.3
		c1.8,10.2,6.8,18.2,16.9,21.9c9.7,3.5,19,2.4,27-4.3C618.6,460.7,621,452.2,621.2,442.8z"/>
	<path class="st1" d="M737.8,240.7c6.6,10,13,19.7,19.9,30.1c-3.8,0-7,0-10.2,0c-1.3,0-1.6-1.3-2.2-2.2c-5.3-8.3-10.7-16.6-16-25
		c-1.2-1.9-2.4-2.6-4.6-2.4c-3,0.2-6,0.2-9,0c-2.2-0.1-2.9,0.5-2.9,2.8c0.1,8,0,16,0.1,23.9c0,2.4-0.7,3-3,3c-6.2-0.1-6.2,0-6.2-6.2
		c0-21.8,0-43.5-0.1-65.3c0-2.5,0.7-3.1,3.2-3.1c9.2,0.1,18.4-0.1,27.5,0.1c15.7,0.3,25.4,12.7,22,28c-1.8,8.1-7,13.2-15,15.5
		C740.3,240.1,739.2,240.3,737.8,240.7z M712.9,218.7c0,4.1,0,8.2,0,12.3c0,1.2,0,2.2,1.6,2.2c6.5-0.1,13,0.2,19.5-0.2
		c8.3-0.6,13.6-6.7,13.3-14.5c-0.3-7.9-5.8-13.4-14.1-13.7c-6.1-0.2-12.2,0-18.3-0.1c-1.6,0-2,0.6-2,2.1
		C713,210.7,712.9,214.7,712.9,218.7z"/>
	<path class="st1" d="M868.4,480c4.2-10.4,8.2-20.3,12.1-30.2c5.6-13.9,11.2-27.7,16.7-41.6c0.8-2,1.7-2.9,3.9-2.7
		c2.9,0.3,6.3-1,8.5,0.5c2.2,1.5,2.5,5,3.6,7.7c8.6,21.2,17,42.4,25.7,63.5c1.1,2.6,0.4,2.9-2,2.8c-7.3-0.1-7.2,0-10-6.9
		c-1.3-3.2-1.6-7.7-4.3-9.3c-2.5-1.5-6.6-0.5-10-0.5c-8.3,0-16.6,0-24.8-0.1c-1.8,0-2.7,0.6-3.3,2.2c-1.5,4.1-3.3,8.1-4.8,12.3
		c-0.6,1.7-1.5,2.3-3.3,2.2C873.8,479.9,871.4,480,868.4,480z M904.3,414.5c-0.4,0.6-0.7,0.8-0.8,1.2c-4.9,12.5-9.8,25.1-14.7,37.6
		c-0.8,1.9,0.1,1.9,1.5,1.9c9.2,0,18.4-0.1,27.5,0c2.1,0,2-0.8,1.4-2.3C914.3,440.2,909.4,427.6,904.3,414.5z"/>
	<path class="st1" d="M640.3,233.5c0-11.5,0.1-23-0.1-34.4c0-2.3,0.6-2.8,2.8-2.8c14.4,0.1,28.8,0.1,43.1,0c2.3,0,2.9,0.6,2.8,2.8
		c-0.1,5.5,0,5.5-5.4,5.5c-10.4,0-20.8,0.1-31.2-0.1c-2.3,0-2.9,0.6-2.8,2.9c0.1,6.2,0.1,12.4,0,18.6c-0.1,2.2,0.7,2.6,2.7,2.6
		c11.1-0.1,22.2,0,33.2-0.1c2.1,0,2.7,0.5,2.7,2.6c-0.1,5.8,0,5.8-5.8,5.8c-10,0-20,0.1-30,0c-2.1,0-3,0.4-2.9,2.7
		c0.2,6.7,0.1,13.4,0,20.1c0,2.2,0.6,2.9,2.8,2.8c11.1-0.1,22.2,0,33.2-0.1c2.5,0,3.5,0.5,3.3,3.2c-0.2,5.1-0.1,5.1-5.3,5.1
		c-13.5,0-27-0.1-40.4,0.1c-2.6,0-3.1-0.8-3.1-3.2C640.3,256.3,640.3,244.9,640.3,233.5z"/>
	<path class="st1" d="M598.7,338c0-11.4,0-22.8,0-34.1c0-2.1,0.3-2.9,2.7-2.9c14.5,0.1,28.9,0.1,43.4,0c2.4,0,2.8,0.8,2.7,2.9
		c-0.1,5.4,0,5.5-5.5,5.5c-10.4,0-20.8,0.1-31.1-0.1c-2.4,0-3,0.7-2.9,3c0.2,6,0.2,12,0,18c-0.1,2.6,0.8,3.1,3.2,3.1
		c10.8-0.1,21.6,0,32.3-0.1c2.5,0,3.5,0.5,3.4,3.2c-0.2,5-0.1,5-5.1,5c-10.3,0-20.6,0.1-30.8-0.1c-2.4,0-3,0.7-3,3
		c0.1,6.6,0.2,13.2,0,19.8c-0.1,2.5,0.8,2.9,3,2.9c11.1-0.1,22.2,0,33.2-0.1c2.5,0,3.5,0.5,3.4,3.2c-0.2,5.1-0.1,5.1-5.3,5.1
		c-13.6,0-27.1-0.1-40.7,0.1c-2.4,0-3-0.7-2.9-3C598.7,360.9,598.7,349.4,598.7,338z"/>
	<path class="st1" d="M645.3,430.8c0-7.6,0.1-15.2,0-22.8c0-2,0.5-2.6,2.5-2.6c6.8-0.1,6.8-0.1,6.8,6.8c0,12.4,0,24.8,0,37.1
		c0,0.8,0,1.6,0,2.4c0.2,14.4,10.2,22.9,24.5,20.9c11.1-1.5,17.5-9.1,17.6-21.3c0.1-13.4,0-26.7,0-40.1c0-5.9,0-5.7,6-5.9
		c2.8-0.1,3.4,0.8,3.4,3.5c-0.1,13.9,0,27.7-0.1,41.6c0,2.7-0.2,5.4-0.7,8c-2.3,12.6-10.2,20.2-23,22.2c-5.2,0.8-10.4,0.7-15.5-0.4
		c-13.6-2.9-21.4-13.1-21.5-28.1C645.2,445.2,645.3,438,645.3,430.8z"/>
	<path class="st1" d="M846.5,196.3c3.1,0,6.2,0,9.2,0c1.6,0,1.9,1.3,2.5,2.2c6.7,9.9,13.4,19.9,19.9,29.9c1.5,2.3,2.1,2.1,3.5,0
		c6.5-9.9,13.2-19.7,19.7-29.7c1.2-1.8,2.4-2.6,4.6-2.4c2.4,0.2,4.8,0,7.2,0c0.5,1.4-0.7,2.1-1.2,2.9c-8.5,12.6-17.1,25.3-25.8,37.8
		c-1.1,1.7-1.6,3.3-1.6,5.3c0.1,8.7,0,17.4,0.1,26c0,2-0.6,2.5-2.5,2.5c-6.9,0-6.9,0.1-6.9-6.8c0-6.9-0.1-13.8,0.1-20.7
		c0.1-2.8-0.6-5.1-2.3-7.5c-8.4-12-16.6-24.2-24.8-36.3C847.6,198.7,846.6,197.9,846.5,196.3z"/>
	<path class="st1" d="M969.7,447c0,10.1-0.1,20.2,0.1,30.2c0,2.3-0.6,2.9-2.8,2.8c-6.6-0.1-6.6,0-6.6-6.5c0-18.9,0-37.7,0.1-56.6
		c0-2.5-0.6-3.2-3.1-3.1c-6,0.2-12,0-18,0.1c-2,0-2.5-0.6-2.5-2.5c0-5.8-0.1-5.8,5.8-5.8c15.9,0,31.7,0.1,47.6-0.1
		c2.4,0,3.3,0.5,3.2,3.1c-0.2,5.3,0,5.3-5.4,5.3c-5.1,0-10.2,0.1-15.3-0.1c-2.3-0.1-3.1,0.5-3,2.9
		C969.8,426.8,969.7,436.9,969.7,447z"/>
	<path class="st1" d="M1014.8,442.8c0,11.5-0.1,22.9,0.1,34.4c0,2.2-0.5,2.9-2.8,2.9c-6.5-0.1-6.5,0-6.5-6.6c0-21.5,0-43.1-0.1-64.6
		c0-2.6,0.6-3.4,3.3-3.3c6,0.2,6,0,6,6.2C1014.8,422.1,1014.8,432.5,1014.8,442.8z"/>
	<g>
		<path class="st2" d="M416.6,365.5l56.5-14l-54.5-20.4l24-20.6L413.9,297l28.8-28.1l-40.1-4.4l12.7-29.2l-30.1-0.5l30.1-49.8
			l-53,24.1l2.4-32.8l-29.9,12l0.7-40.8l-31.7,25.8l-9.6-28.5l-23.8,19.8l-14-56.5L236,162.5l-19.4-22.3l-14.7,27.1l-27.2-30.1
			l-5.3,41.4l-26.8-13.3l-2.9,30.7l-49.8-30.1l24.1,53l-30.6,0.2l9.9,27.3l-42.7-0.6l27.7,31.6l-30,10.6l21.4,22.7l-56.5,14
			l54.5,20.4l-22,21l26.8,13.1l-30.7,28.3l42,4.2L70,438.1l31,3.3l-30.1,49.8l53-24.1l-2.1,33l29.6-12.2l-3.4,41.4l34.4-26.4
			l8.1,30.4l25.2-21.8l14,56.5l20.4-54.5l19.7,26.4l14.4-31.1l27.7,31.6l4.8-42.9l28.4,17.6l1.3-35.1l49.8,30.1l-24.1-53l30.2,4.3
			l-9.4-31.8l40.4,0.4L408,398.8l29.8-10.3L416.6,365.5z M241.5,495.7c-87.9,0-159.2-71.3-159.2-159.2s71.3-159.2,159.2-159.2
			s159.2,71.3,159.2,159.2S329.4,495.7,241.5,495.7z"/>
		<circle class="st3" cx="243.1" cy="338.1" r="142.4"/>
		<circle class="st4" cx="217.8" cy="298.3" r="8.2"/>
		<circle class="st4" cx="300.4" cy="301.2" r="8.2"/>
		<circle class="st4" cx="232.4" cy="336" r="14"/>
		<circle class="st4" cx="335.4" cy="331.1" r="12.2"/>
		<circle class="st4" cx="271.1" cy="379.5" r="6.8"/>
		<circle class="st4" cx="201.6" cy="386.3" r="10.4"/>
		<circle class="st4" cx="162.3" cy="336" r="7"/>
		<rect x="166.9" y="334.9" class="st4" width="56.6" height="4.3"/>
		
			<rect x="223.5" y="298" transform="matrix(0.9997 2.617338e-02 -2.617338e-02 0.9997 7.9363 -6.6987)" class="st4" width="72.7" height="3.6"/>
		<polygon class="st4" points="216.4,299.1 161.2,249.2 165.3,247.7 219,296.2 		"/>
		<polygon class="st4" points="233.6,230.9 164.1,251.2 162.7,247.6 232.5,227.2 		"/>
		
			<rect x="224.2" y="229.8" transform="matrix(0.9805 0.1964 -0.1964 0.9805 55.7483 -39.2909)" class="st4" width="3.5" height="63.2"/>
		
			<rect x="263.3" y="215.5" transform="matrix(0.7289 -0.6847 0.6847 0.7289 -108.3115 252.8553)" class="st4" width="3.5" height="95.4"/>
		
			<rect x="261.8" y="212.7" transform="matrix(0.5751 -0.8181 0.8181 0.5751 -92.5091 321.87)" class="st4" width="3.5" height="74.6"/>
		
			<rect x="295.4" y="268.1" transform="matrix(0.9748 -0.2232 0.2232 0.9748 -56.4996 73.5355)" class="st4" width="3.5" height="37.3"/>
		
			<rect x="311.7" y="244.3" transform="matrix(0.1817 0.9834 -0.9834 0.1817 517.7584 -90.7986)" class="st4" width="3.5" height="42.7"/>
		
			<rect x="316.7" y="258.6" transform="matrix(0.7525 0.6585 -0.6585 0.7525 263.1616 -140.4549)" class="st4" width="3.5" height="42.7"/>
		
			<rect x="332.7" y="263.6" transform="matrix(0.9999 -1.621576e-02 1.621576e-02 0.9999 -4.7069 5.4615)" class="st4" width="3.5" height="58.7"/>
		<polygon class="st4" points="364.6,325.7 367.5,324.3 334.4,261 331.2,262.7 		"/>
		
			<rect x="315.9" y="298.6" transform="matrix(0.6585 -0.7525 0.7525 0.6585 -128.9611 346.786)" class="st4" width="3.5" height="33.8"/>
		<polygon class="st4" points="366.6,327.4 367.1,323.8 333.7,329.2 334.3,332.7 		"/>
		
			<rect x="307.7" y="323.5" transform="matrix(-0.3708 -0.9287 0.9287 -0.3708 107.3104 755.1456)" class="st4" width="3.5" height="35.5"/>
		
			<rect x="294.2" y="308.5" transform="matrix(-0.9907 -0.1359 0.1359 -0.9907 544.5727 695.0349)" class="st4" width="3.5" height="40.9"/>
		
			<rect x="266.9" y="288.2" transform="matrix(-0.4675 -0.884 0.884 -0.4675 112.7466 704.9677)" class="st4" width="3.5" height="60.6"/>
		
			<rect x="264" y="312.3" transform="matrix(0.16 -0.9871 0.9871 0.16 -114.8801 550.1416)" class="st4" width="3.5" height="60.6"/>
		
			<rect x="222.8" y="293.4" transform="matrix(-0.9113 0.4117 -0.4117 -0.9113 558.0488 505.723)" class="st4" width="3.5" height="39.2"/>
		
			<rect x="189.6" y="286.9" transform="matrix(-0.5597 -0.8287 0.8287 -0.5597 35.5297 653.4)" class="st4" width="3.5" height="60.8"/>
		<polygon class="st4" points="210.4,299.2 210.9,295.7 136,285.7 137.9,289.6 		"/>
		<polygon class="st4" points="158.6,333.1 161.8,331.5 139.6,287 135.7,287.2 		"/>
		
			<rect x="179.3" y="335.7" transform="matrix(0.7861 -0.6181 0.6181 0.7861 -184.1093 189.0532)" class="st4" width="3.5" height="49.7"/>
		<polygon class="st4" points="196.7,387.3 196.9,383.7 137.3,380.7 136.3,384.2 		"/>
		
			<rect x="235.5" y="352.7" transform="matrix(-7.554258e-02 -0.9971 0.9971 -7.554258e-02 -126.184 647.979)" class="st4" width="3.5" height="59.7"/>
		
			<rect x="252.1" y="329.6" transform="matrix(0.7568 -0.6536 0.6536 0.7568 -173.177 253.3432)" class="st4" width="3.5" height="59.7"/>
		
			<rect x="280" y="342.9" transform="matrix(0.8133 0.5819 -0.5819 0.8133 264.3554 -96.012)" class="st4" width="3.5" height="41.9"/>
		<polygon class="st4" points="316.5,392.5 320.4,392.1 294.2,346.7 291.1,348.5 		"/>
		<polygon class="st4" points="320.1,393.7 318.2,389.5 268.6,376.1 267.7,379.5 		"/>
		
			<rect x="284.1" y="377.9" transform="matrix(0.7356 -0.6775 0.6775 0.7356 -192.1732 298.1658)" class="st4" width="3.5" height="34.6"/>
		<rect x="254.9" y="380.5" transform="matrix(0.92 0.3919 -0.3919 0.92 182.5723 -67.4946)" class="st4" width="3.5" height="66"/>
		
			<rect x="221.1" y="383.5" transform="matrix(0.8251 -0.565 0.565 0.8251 -196.3262 198.7841)" class="st4" width="3.5" height="66"/>
		
			<rect x="210.3" y="402.7" transform="matrix(0.2803 -0.9599 0.9599 0.2803 -265.5911 517.0914)" class="st4" width="3.5" height="66"/>
		
			<rect x="188.3" y="389.5" transform="matrix(-0.8987 -0.4385 0.4385 -0.8987 181.1356 861.3695)" class="st4" width="3.5" height="40.6"/>
		<polygon class="st4" points="241.4,443.3 243.4,446.2 299.7,407.6 297.3,405 		"/>
		<polygon class="st4" points="351.8,389 352.3,385.1 294.1,346.5 292.2,349.4 		"/>
		<polygon class="st4" points="350,387 352.9,384.3 337,331.8 333.6,332.9 		"/>
		<polygon class="st4" points="349.6,384.3 352.7,386.7 367.5,324.3 363.8,324.7 		"/>
		<polygon class="st4" points="132.9,384.3 137,384.2 161.9,341.2 158.8,339.4 		"/>
		
			<rect x="213.8" y="340.5" transform="matrix(0.8309 0.5563 -0.5563 0.8309 239.7391 -58.1813)" class="st4" width="3.5" height="49.7"/>
		<path class="st4" d="M232.8,229.6L232.8,229.6c-0.5-0.1-0.9-0.6-0.8-1.1l3.6-22.4c0.1-0.5,0.6-0.9,1.1-0.8l0,0
			c0.5,0.1,0.9,0.6,0.8,1.1l-3.6,22.4C233.8,229.3,233.3,229.7,232.8,229.6z"/>
		<path class="st4" d="M292.7,270.2L292.7,270.2c-0.5,0-1-0.4-1.1-0.9l-1.8-22.6c0-0.5,0.4-1,0.9-1.1l0,0c0.5,0,1,0.4,1.1,0.9
			l1.8,22.6C293.7,269.6,293.3,270.1,292.7,270.2z"/>
		<path class="st4" d="M328.8,267.7l10-19.9c0.2-0.5,0.8-0.7,1.3-0.4h0c0.5,0.2,0.7,0.8,0.4,1.3l-9.7,19.4"/>
		<path class="st4" d="M355.1,396.5L355.1,396.5c-0.5,0.2-1.1-0.1-1.3-0.6l-7.5-21.4c-0.2-0.5,0.1-1.1,0.6-1.3l0,0
			c0.5-0.2,1.1,0.1,1.3,0.6l7.5,21.4C355.9,395.7,355.7,396.3,355.1,396.5z"/>
		<path class="st4" d="M315.9,389.1l17.8,10.3c0.5,0.3,0.6,0.9,0.4,1.4l0,0c-0.3,0.5-0.9,0.6-1.4,0.4l-18-10.4"/>
		<path class="st4" d="M295.5,406.6l13.4,1.9c0.5,0.1,0.9,0.6,0.8,1.1l0,0c-0.1,0.5-0.6,0.9-1.1,0.8l-13.4-1.9"/>
		<path class="st4" d="M243.5,441.7l1.3,21.5c0,0.5-0.4,1-0.9,1.1l0,0c-0.5,0-1-0.4-1.1-0.9l-1.2-20.9"/>
		<path class="st4" d="M161.9,439.9L161.9,439.9c-0.3-0.5-0.2-1.1,0.3-1.4l18.7-12.8c0.5-0.3,1.1-0.2,1.4,0.3h0
			c0.3,0.5,0.2,1.1-0.3,1.4l-18.7,12.8C162.8,440.5,162.2,440.4,161.9,439.9z"/>
		<path class="st4" d="M139.3,290.4l-11.7-8.5c-0.4-0.3-0.5-0.9-0.2-1.4l0,0c0.3-0.4,0.9-0.5,1.4-0.2l12,8.7"/>
		<path class="st4" d="M166.6,249.9l-17.3-1.6c-0.5-0.1-0.9-0.5-0.9-1.1l0,0c0.1-0.5,0.5-0.9,1.1-0.9l17.5,1.7"/>
	</g>
</g>
</svg>
